# Simple Pyramid
# Vertex positions
v  0.0  1.0  0.0    # Top vertex
v -1.0 -1.0  1.0    # Front left
v  1.0 -1.0  1.0    # Front right
v  1.0 -1.0 -1.0    # Back right
v -1.0 -1.0 -1.0    # Back left

# Vertex normals (approximate)
vn  0.0  0.447  0.894   # Front face normal
vn  0.894  0.447  0.0   # Right face normal
vn  0.0  0.447 -0.894   # Back face normal
vn -0.894  0.447  0.0   # Left face normal
vn  0.0 -1.0  0.0       # Bottom face normal

# Faces with normals
# Front face
f 1//1 2//1 3//1

# Right face
f 1//2 3//2 4//2

# Back face
f 1//3 4//3 5//3

# Left face
f 1//4 5//4 2//4

# Bottom face (square base)
f 5//5 4//5 3//5 2//5
