# Blender 4.4.3
# www.blender.org
mtllib VendingMechine.mtl
g Kulkas_Kulkas_Cube.001
v 0.337021 6.106890 -2.371023
v 0.337021 0.279169 -2.371022
v 0.337021 5.946748 1.666902
v 0.337021 0.279169 1.827045
v -1.662979 6.106890 -2.371023
v -1.662979 0.279169 -2.371022
v -1.662979 6.106890 1.827044
v -1.662979 0.279169 1.827045
v 0.337021 1.995715 -2.371022
v -1.662979 1.995715 1.827044
v 0.337021 2.155857 1.666903
v -1.662979 1.995715 -2.371022
v -1.662979 0.279169 -1.422583
v 0.337021 5.946748 -1.262441
v -1.662979 6.106890 -1.422584
v 0.337021 0.279169 -1.422583
v 0.337021 2.155857 -1.262440
v -1.662979 1.995715 -1.422583
v 0.337021 6.106890 -1.422584
v 0.337021 6.106890 1.827044
v 0.337021 1.995715 1.827044
v 0.337021 1.995715 -1.422583
v -1.593174 5.946748 -1.262441
v -1.593174 5.946748 1.666902
v -1.593174 2.155857 1.666903
v -1.593174 2.155857 -1.262440
v 0.337021 4.634316 -2.268842
v 0.337021 3.468287 -2.268842
v 0.337021 4.634316 -1.524765
v 0.337021 3.468287 -1.524764
v 0.243994 4.634316 -2.268842
v 0.243994 3.468287 -2.268842
v 0.243994 4.634316 -1.524765
v 0.243994 3.468287 -1.524764
v 0.337021 1.995715 1.230627
v 0.337021 1.995715 -0.826164
v 0.337021 6.106891 1.230626
v 0.337021 6.106891 -0.826165
v -1.662979 0.279169 1.230627
v -1.662979 0.279169 -0.826164
v 0.337021 0.710442 -2.371022
v 0.337021 1.564442 -2.371022
v 0.337021 0.710442 1.827045
v 0.337021 1.564442 1.827045
v -1.662979 1.564442 -2.371022
v -1.662979 0.710442 -2.371022
v -1.662979 0.710442 1.827045
v -1.662979 1.564442 1.827045
v -1.662979 1.564442 -1.422583
v -1.662979 0.710442 -1.422583
v 0.337021 1.564442 -1.422583
v 0.337021 0.710442 -1.422583
v -1.662979 6.106891 1.230626
v -1.662979 6.106891 -0.826165
v 0.337021 0.279169 1.230627
v 0.337021 0.279169 -0.826164
v -1.662979 1.995715 1.230627
v -1.662979 1.995715 -0.826164
v 0.337021 5.946748 -0.724806
v 0.337021 5.946748 1.129266
v 0.337021 2.155857 -0.724805
v 0.337021 2.155857 1.129267
v -1.593174 5.946748 -0.724806
v -1.593174 5.946748 1.129266
v -1.593174 2.155857 -0.724805
v -1.593174 2.155857 1.129267
v -1.662979 1.564442 1.230627
v -1.662979 1.564442 -0.826164
v -1.662979 0.710442 -0.826164
v -1.662979 0.710442 1.230627
v 0.321162 1.422102 -0.682143
v 0.321162 1.422102 1.086605
v 0.199081 0.852782 1.086605
v 0.199081 0.852782 -0.682143
v 0.337021 1.564442 -0.826164
v 0.337021 1.564442 1.230627
v 0.337021 0.710442 1.230627
v 0.337021 0.710442 -0.826164
v 0.372657 1.564442 -0.826164
v 0.372657 1.564442 1.230627
v 0.372657 0.710442 1.230627
v 0.372657 0.710442 -0.826164
v 0.372657 1.496058 -0.757781
v 0.372657 1.496058 1.162242
v 0.372657 0.778826 1.162242
v 0.372657 0.778826 -0.757781
v 0.337021 1.496058 -0.757781
v 0.337021 1.496058 1.162242
v 0.183223 0.778826 1.162242
v 0.183223 0.778826 -0.757781
v 0.374056 1.367149 -0.552610
v 0.374056 1.367149 0.957073
v 0.269856 0.881216 0.957073
v 0.269856 0.881216 -0.552610
v 0.194903 5.946748 -1.262441
v 0.194903 2.155857 -1.262440
v 0.194903 2.155857 1.666903
v 0.194903 5.946748 1.666902
v 0.194903 5.946748 -0.724806
v 0.194903 5.946748 1.129266
v 0.194903 2.155857 1.129267
v 0.194903 2.155857 -0.724805
v -0.387362 5.946748 -1.262441
v -0.387362 2.155857 1.666903
v -0.387362 5.946748 -0.724806
v -0.387362 5.946748 1.129266
v -0.387362 2.155857 1.129267
v -0.387362 2.155857 -0.724805
v -0.387362 2.155857 -1.262440
v -0.387362 5.946748 1.666902
v -1.662979 2.847833 1.827044
v -1.662979 2.694067 1.827044
v -1.662979 5.157023 1.827044
v -1.662979 5.003140 1.827044
v 0.337021 5.157173 1.827044
v 0.337021 5.002960 1.827044
v 0.337021 2.847987 1.827044
v 0.337021 2.693918 1.827044
v -1.662979 5.003463 -2.371022
v -1.662979 5.156930 -2.371023
v -1.662979 2.694160 -2.371022
v -1.662979 2.847539 -2.371022
v -1.662979 5.156885 -1.422584
v -1.662979 5.003427 -1.422584
v -1.662979 2.847579 -1.422583
v -1.662979 2.694206 -1.422583
v 0.337021 4.935121 1.666902
v 0.337021 5.089343 1.666902
v 0.337021 2.761748 1.666903
v 0.337021 2.915781 1.666903
v 0.337021 5.089343 -1.262442
v 0.337021 4.934608 -1.262442
v 0.337021 2.917998 -1.262441
v 0.337021 2.761748 -1.262441
v -1.593174 4.935397 1.666902
v -1.593174 5.088982 1.666902
v -1.593174 2.762109 1.666903
v -1.593174 2.915283 1.666903
v -1.593174 5.088982 -1.262442
v -1.593174 4.935261 -1.262442
v -1.593174 2.914885 -1.262441
v -1.593174 2.762109 -1.262441
v 0.337021 5.003615 -2.371022
v 0.337021 5.157023 -2.371023
v 0.337021 2.694067 -2.371022
v 0.337021 2.847517 -2.371022
v 0.337021 5.003757 -1.426202
v 0.337021 5.157173 -1.422584
v 0.337021 2.693918 -1.422583
v 0.337021 2.847511 -1.437648
v 0.194903 1.467043 1.129267
v 0.194903 1.467043 -0.724805
v 0.194903 1.467043 -1.262440
v -0.387362 1.467043 -1.262440
v -1.662979 2.847720 1.230627
v -1.662979 2.694161 1.230627
v -1.662979 2.694206 -0.826164
v -1.662979 2.847637 -0.826164
v -1.662979 5.156930 1.230626
v -1.662979 5.003273 1.230626
v -1.662979 5.003365 -0.826164
v -1.662979 5.156885 -0.826164
v -0.170095 4.935264 1.666902
v -0.170095 5.089171 1.666902
v -0.170095 2.761919 1.666903
v -0.170095 2.915585 1.666903
v -0.170095 2.914531 -1.262441
v -0.170095 2.761919 -1.262441
v -0.170095 5.089171 -1.262442
v -0.170095 4.934904 -1.262442
v -0.387362 5.089055 1.666902
v -0.387362 4.935354 1.666902
v -0.387362 2.915423 1.666903
v -0.387362 2.762036 1.666903
v -0.387362 2.762036 -1.262441
v -0.387362 2.914725 -1.262441
v -0.387362 4.935114 -1.262442
v -0.387362 5.089055 -1.262442
v -1.662979 3.873283 1.827044
v -1.662979 4.025849 1.827044
v 0.337021 3.873282 -2.371022
v 0.337021 4.025848 -2.371022
v 0.337021 3.873283 1.827044
v 0.337021 4.025849 1.827044
v -1.662979 4.025848 -2.371022
v -1.662979 3.873282 -2.371022
v 0.337021 4.025849 -1.422583
v 0.337021 3.873283 -1.422583
v -1.662979 3.873283 -1.422583
v -1.662979 4.025849 -1.422583
v 0.337021 4.025849 1.666903
v 0.337021 3.873283 1.666903
v 0.337021 3.873283 -1.262441
v 0.337021 4.025849 -1.262441
v -1.593174 4.025849 1.666903
v -1.593174 3.873283 1.666903
v -1.593174 3.873283 -1.262441
v -1.593174 4.025849 -1.262441
v 0.337021 3.873282 -2.268842
v 0.337021 4.025847 -2.268842
v 0.337021 4.025848 -1.524764
v 0.337021 3.873283 -1.524764
v 0.243994 4.025847 -2.268842
v 0.243994 3.873282 -2.268842
v 0.243994 3.873283 -1.524764
v 0.243994 4.025848 -1.524764
v -1.662979 3.873283 1.230627
v -1.662979 4.025849 1.230627
v -1.662979 4.025849 -0.826164
v -1.662979 3.873283 -0.826164
v -0.170095 3.873283 -1.262441
v -0.170095 4.025849 -1.262441
v -0.170095 4.025849 1.666903
v -0.170095 3.873283 1.666903
v -0.387362 4.025849 -1.262441
v -0.387362 3.873283 -1.262441
v -0.387362 3.873283 1.666903
v -0.387362 4.025849 1.666903
v 0.194903 1.467043 1.666903
v -0.387362 1.467043 1.666903
v -0.387362 1.467043 1.129267
v -0.387362 1.467043 -0.724805
vn -0.0000 1.0000 -0.0000
vn -1.0000 -0.0000 -0.0000
vn -0.0000 -1.0000 -0.0000
vn 1.0000 -0.0000 -0.0000
vn -0.0000 -0.0000 -1.0000
vn -0.0000 -0.0000 1.0000
vn -0.0000 1.0000 -0.0002
vn 0.7205 0.6935 -0.0000
vn 0.9778 -0.2097 -0.0000
vn 0.8786 -0.1884 0.4387
vn 0.3728 -0.9279 -0.0000
vn 0.8786 -0.1884 -0.4387
vn -0.0003 -1.0000 -0.0000
vn -0.0001 -1.0000 -0.0000
vn 0.0001 1.0000 -0.0003
vn -0.0003 1.0000 -0.0000
vn -0.0005 1.0000 -0.0000
vn -0.0001 1.0000 -0.0000
vn -0.0007 -1.0000 0.0001
vn -0.0004 -1.0000 0.0001
vn -0.0001 -1.0000 0.0001
vn -0.0005 -1.0000 -0.0000
vt 0.625000 0.685494
vt 0.875000 0.685494
vt 0.875000 0.750000
vt 0.625000 0.750000
vt 0.539394 0.000000
vt 0.563616 0.000000
vt 0.563620 0.064506
vt 0.539394 0.064506
vt 0.539394 0.193519
vt 0.563625 0.193519
vt 0.563627 0.250000
vt 0.539394 0.250000
vt 0.125000 0.685494
vt 0.375000 0.685494
vt 0.375000 0.750000
vt 0.125000 0.750000
vt 0.561324 0.566017
vt 0.561328 0.740463
vt 0.539394 0.740463
vt 0.539394 0.566017
vt 0.563632 0.500000
vt 0.539394 0.500000
vt 0.393501 0.685494
vt 0.393501 0.750000
vt 0.375000 0.193519
vt 0.393501 0.193519
vt 0.393501 0.250000
vt 0.375000 0.250000
vt 0.430136 0.129013
vt 0.448637 0.129013
vt 0.448637 0.193519
vt 0.430136 0.193519
vt 0.393501 1.000000
vt 0.375000 1.000000
vt 0.375000 0.129013
vt 0.393501 0.129013
vt 0.375000 0.500000
vt 0.393501 0.500000
vt 0.393501 0.556481
vt 0.375000 0.556481
vt 0.561829 0.550396
vt 0.561829 0.506085
vt 0.565047 0.500000
vt 0.565049 0.556265
vt 0.125000 0.500000
vt 0.125000 0.556481
vt 0.539394 0.129013
vt 0.563623 0.129013
vt 0.625000 0.500000
vt 0.875000 0.500000
vt 0.875000 0.556481
vt 0.625000 0.556481
vt 0.618130 0.624166
vt 0.618130 0.566017
vt 0.625000 0.620987
vt 0.561319 0.740463
vt 0.563610 0.750000
vt 0.539394 0.750000
vt 0.455507 0.682315
vt 0.455507 0.740463
vt 0.448637 0.750000
vt 0.448637 0.685494
vt 0.512387 0.566017
vt 0.534243 0.566017
vt 0.512269 0.566017
vt 0.534243 0.740463
vt 0.455507 0.624166
vt 0.455507 0.566017
vt 0.618130 0.682315
vt 0.618130 0.740463
vt 0.561327 0.740463
vt 0.505903 0.740463
vt 0.505907 0.740463
vt 0.512300 0.740463
vt 0.512295 0.740463
vt 0.512276 0.566017
vt 0.512281 0.566017
vt 0.561302 0.566017
vt 0.561312 0.566017
vt 0.567734 0.740463
vt 0.567730 0.740463
vt 0.512312 0.740463
vt 0.534243 0.750000
vt 0.510023 0.750000
vt 0.505889 0.740463
vt 0.503598 0.750000
vt 0.510011 0.129013
vt 0.534243 0.129013
vt 0.534243 0.193519
vt 0.510009 0.193519
vt 0.503613 0.129013
vt 0.503613 0.193519
vt 0.511808 0.506085
vt 0.511808 0.550396
vt 0.508591 0.555584
vt 0.508591 0.500000
vt 0.534243 0.250000
vt 0.510007 0.250000
vt 0.570024 0.193519
vt 0.625000 0.193519
vt 0.625000 0.250000
vt 0.570027 0.250000
vt 0.505907 0.566017
vt 0.534243 0.500000
vt 0.510007 0.500000
vt 0.503610 0.250000
vt 0.448637 0.250000
vt 0.534243 1.000000
vt 0.510017 1.000000
vt 0.570039 0.750000
vt 0.625000 1.000000
vt 0.570031 1.000000
vt 0.540091 0.550396
vt 0.563823 0.556265
vt 0.539394 0.556481
vt 0.533546 0.550396
vt 0.534243 0.556481
vt 0.509226 0.555583
vt 0.533546 0.506085
vt 0.540091 0.506085
vt 0.430136 0.250000
vt 0.448637 0.500000
vt 0.430136 0.500000
vt 0.430136 0.556481
vt 0.430136 0.620987
vt 0.393501 0.620987
vt 0.430136 0.685494
vt 0.430136 0.750000
vt 0.448637 1.000000
vt 0.430136 1.000000
vt 0.448637 0.556481
vt 0.424030 0.625504
vt 0.424030 0.680977
vt 0.430136 0.000000
vt 0.430136 0.064506
vt 0.393501 0.064506
vt 0.393501 0.000000
vt 0.448637 0.620987
vt 0.567748 0.740463
vt 0.561324 0.740463
vt 0.510017 0.000000
vt 0.534243 0.000000
vt 0.534243 0.064506
vt 0.510014 0.064506
vt 0.570027 0.064506
vt 0.625000 0.064506
vt 0.625000 0.129013
vt 0.570024 0.129013
vt 0.561319 0.566017
vt 0.505903 0.566017
vt 0.567730 0.566017
vt 0.567734 0.566017
vt 0.563616 1.000000
vt 0.539394 1.000000
vt 0.375000 0.000000
vt 0.375000 0.064506
vt 0.448637 0.000000
vt 0.448637 0.064506
vt 0.375000 0.620987
vt 0.125000 0.620987
vt 0.875000 0.620987
vt 0.427203 0.683349
vt 0.427203 0.623132
vt 0.396434 0.623132
vt 0.396434 0.683349
vt 0.399607 0.625504
vt 0.399607 0.680977
vt 0.563637 0.556265
vt 0.505889 0.566017
vt 0.503598 0.556481
vt 0.567748 0.566017
vt 0.567740 0.566017
vt 0.512305 0.740463
vt 0.570039 0.556481
vt 0.505897 0.740463
vt 0.567740 0.740463
vt 0.505897 0.566017
vt 0.510006 0.555583
vt 0.503610 0.064506
vt 0.503606 1.000000
vt 0.503606 0.500000
vt 0.570031 0.000000
vt 0.625000 0.000000
vt 0.570031 0.500000
vt 0.503606 0.000000
s 1
g Kulkas_Pink
usemtl Pink
f 37/1/1 53/2/1 7/3/1 20/4/1
f 180/5/2 114/6/2 160/7/2 208/8/2
f 190/9/2 124/10/2 119/11/2 185/12/2
f 39/13/3 55/14/3 4/15/3 8/16/3
f 140/17/4 135/18/4 195/19/4 198/20/4
f 185/12/5 119/11/5 143/21/5 182/22/5
f 55/14/4 77/23/4 43/24/4 4/15/4
f 13/25/2 50/26/2 46/27/2 6/28/2
f 68/29/2 58/30/2 18/31/2 49/32/2
f 4/15/6 43/24/6 47/33/6 8/34/6
f 40/35/2 69/36/2 50/26/2 13/25/2
f 2/37/4 41/38/4 52/39/4 16/40/4
f 29/41/4 27/42/4 143/43/4 147/44/4
f 6/45/3 2/37/3 16/40/3 13/46/3
f 209/47/2 161/48/2 124/10/2 190/9/2
f 1/49/1 5/50/1 15/51/1 19/52/1
f 59/53/4 14/54/4 19/52/4 38/55/4
f 191/19/4 127/56/4 116/57/4 184/58/4
f 62/59/4 11/60/4 21/61/4 35/62/4
f 133/63/6 193/64/6 211/64/6 167/65/6
f 213/19/4 214/66/4 211/64/4 212/20/4
f 108/67/1 109/68/1 26/68/1 65/67/1
f 106/69/3 110/70/3 24/70/3 64/69/3
f 172/71/5 218/19/5 195/19/5 135/18/5
f 174/72/5 104/60/5 25/60/5 137/73/5
f 217/66/5 173/74/5 138/75/5 196/66/5
f 138/75/7 173/74/7 176/76/7 141/77/7
f 194/20/6 132/78/6 170/79/6 212/20/6
f 110/70/5 171/80/5 136/81/5 24/70/5
f 130/82/4 192/66/4 183/83/4 117/84/4
f 11/60/4 129/85/4 118/86/4 21/61/4
f 158/87/2 210/88/2 189/89/2 125/90/2
f 58/30/2 157/91/2 126/92/2 18/31/2
f 28/93/4 30/94/4 150/95/4 146/96/4
f 30/94/1 28/93/1 32/93/1 34/94/1
f 125/90/2 189/89/2 186/97/2 122/98/2
f 123/99/2 15/100/2 5/101/2 120/102/2
f 196/66/4 138/75/4 141/77/4 197/64/4
f 142/103/4 137/73/4 25/60/4 66/59/4 65/67/4 26/68/4
f 122/98/5 186/97/5 181/104/5 146/105/5
f 18/31/2 126/92/2 121/106/2 12/107/2
f 117/84/6 183/83/6 179/108/6 111/109/6
f 115/110/6 20/4/6 7/111/6 113/112/6
f 201/113/4 29/41/4 147/114/4 187/115/4
f 30/94/4 202/116/4 188/117/4 150/118/4
f 199/119/4 28/93/4 146/105/4 181/104/4
f 27/42/4 200/120/4 182/22/4 143/21/4
f 202/116/5 30/94/5 34/94/5 205/116/5
f 27/42/3 29/41/3 33/41/3 31/42/3
f 29/41/5 201/113/5 206/113/5 33/41/5
f 45/121/5 12/107/5 9/122/5 42/123/5
f 51/124/4 75/125/4 78/126/4 52/39/4
f 76/127/4 35/62/4 21/61/4 44/128/4
f 49/32/2 18/31/2 12/107/2 45/121/2
f 44/128/6 21/61/6 10/129/6 48/130/6
f 42/123/4 9/122/4 22/131/4 51/124/4
f 42/123/4 51/124/4 52/39/4 41/38/4
f 68/29/2 49/32/2 50/26/2 69/36/2
f 44/128/6 48/130/6 47/33/6 43/24/6
f 49/32/2 45/121/2 46/27/2 50/26/2
f 76/127/4 44/128/4 43/24/4 77/23/4
f 45/121/5 42/123/5 41/38/5 46/27/5
f 6/28/5 46/27/5 41/38/5 2/37/5
f 71/132/8 72/133/8 92/133/8 91/132/8
f 48/134/2 67/135/2 70/136/2 47/137/2
f 67/135/2 68/29/2 69/36/2 70/136/2
f 51/124/4 22/131/4 36/138/4 75/125/4
f 75/125/4 36/138/4 35/62/4 76/127/4
f 128/139/4 3/70/4 20/4/4 115/110/4
f 163/140/5 213/19/5 218/19/5 172/71/5
f 111/141/2 179/142/2 207/143/2 155/144/2
f 159/145/2 53/146/2 54/147/2 162/148/2
f 215/20/6 177/149/6 140/17/6 198/20/6
f 155/144/2 207/143/2 210/88/2 158/87/2
f 109/68/6 175/150/6 142/103/6 26/68/6
f 139/151/4 23/54/4 63/53/4 64/69/4 24/70/4 136/81/4
f 103/54/3 105/53/3 63/53/3 23/54/3
f 105/53/3 106/69/3 64/69/3 63/53/3
f 104/60/1 107/59/1 66/59/1 25/60/1
f 107/59/1 108/67/1 65/67/1 66/59/1
f 178/152/6 103/54/6 23/54/6 139/151/6
f 17/68/4 61/67/4 36/138/4 22/131/4
f 61/67/4 62/59/4 35/62/4 36/138/4
f 3/70/4 60/69/4 37/1/4 20/4/4
f 60/69/4 59/53/4 38/55/4 37/1/4
f 184/58/6 116/57/6 114/153/6 180/154/6
f 208/8/2 160/7/2 161/48/2 209/47/2
f 8/155/2 47/137/2 70/136/2 39/156/2
f 39/156/2 70/136/2 69/36/2 40/35/2
f 48/134/2 10/157/2 57/158/2 67/135/2
f 67/135/2 57/158/2 58/30/2 68/29/2
f 16/40/4 52/39/4 78/126/4 56/159/4
f 56/159/4 78/126/4 77/23/4 55/14/4
f 13/46/3 16/40/3 56/159/3 40/160/3
f 40/160/3 56/159/3 55/14/3 39/13/3
f 19/52/1 15/51/1 54/161/1 38/55/1
f 38/55/1 54/161/1 53/2/1 37/1/1
f 77/23/3 78/126/3 82/126/3 81/23/3
f 76/127/6 77/23/6 81/23/6 80/127/6
f 88/162/3 87/163/3 83/163/3 84/162/3
f 87/163/6 90/164/6 86/164/6 83/163/6
f 84/162/4 83/163/4 79/125/4 80/127/4
f 86/164/4 85/165/4 81/23/4 82/126/4
f 83/163/4 86/164/4 82/126/4 79/125/4
f 85/165/4 84/162/4 80/127/4 81/23/4
f 75/125/1 76/127/1 80/127/1 79/125/1
f 89/165/5 88/162/5 84/162/5 85/165/5
f 90/164/1 89/165/1 85/165/1 86/164/1
f 78/126/5 75/125/5 79/125/5 82/126/5
f 72/133/9 71/132/9 87/163/9 88/162/9
f 74/166/9 73/167/9 89/165/9 90/164/9
f 71/132/9 74/166/9 90/164/9 87/163/9
f 73/167/9 72/133/9 88/162/9 89/165/9
f 91/132/9 92/133/9 93/167/9 94/166/9
f 72/133/10 73/167/10 93/167/10 92/133/10
f 73/167/11 74/166/11 94/166/11 93/167/11
f 74/166/12 71/132/12 91/132/12 94/166/12
f 62/59/1 61/67/1 102/67/1 101/59/1
f 11/60/1 62/59/1 101/59/1 97/60/1
f 59/53/3 60/69/3 100/69/3 99/53/3
f 14/54/3 59/53/3 99/53/3 95/54/3
f 132/78/4 194/20/4 187/115/4 147/168/4
f 134/169/4 17/68/4 22/131/4 149/170/4
f 131/171/6 14/54/6 95/54/6 169/172/6
f 127/56/5 191/19/5 213/19/5 163/140/5
f 60/69/3 3/70/3 98/70/3 100/69/3
f 61/67/1 17/68/1 96/68/1 102/67/1
f 192/66/5 130/82/5 166/173/5 214/66/5
f 14/54/4 131/171/4 148/174/4 19/52/4
f 109/68/4 108/67/4 222/67/4 154/68/4
f 97/60/2 101/59/2 151/59/2 219/60/2
f 99/53/3 100/69/3 106/69/3 105/53/3
f 95/54/3 99/53/3 105/53/3 103/54/3
f 28/93/6 199/119/6 204/119/6 32/93/6
f 169/172/6 95/54/6 103/54/6 178/152/6
f 167/65/6 211/64/6 216/64/6 176/76/6
f 165/175/5 97/60/5 104/60/5 174/72/5
f 100/69/3 98/70/3 110/70/3 106/69/3
f 108/67/4 107/59/4 221/59/4 222/67/4
f 214/66/5 166/173/5 173/74/5 217/66/5
f 212/20/6 170/79/6 177/149/6 215/20/6
f 98/70/5 164/176/5 171/80/5 110/70/5
f 96/68/6 168/177/6 175/150/6 109/68/6
f 129/85/5 11/60/5 97/60/5 165/175/5
f 193/64/4 133/63/4 150/178/4 188/117/4
f 174/72/13 137/73/14 142/103/14 175/150/13
f 176/76/6 216/64/6 197/64/6 141/77/6
f 57/158/2 156/179/2 157/91/2 58/30/2
f 21/61/6 118/86/6 112/180/6 10/129/6
f 32/93/4 204/119/4 205/116/4 34/94/4
f 200/120/6 27/42/6 31/42/6 203/120/6
f 203/120/4 31/42/4 33/41/4 206/113/4
f 198/20/1 195/19/1 218/19/1 215/20/1
f 9/122/4 145/181/4 149/170/4 22/131/4
f 113/182/2 7/183/2 53/146/2 159/145/2
f 162/148/2 54/147/2 15/100/2 123/99/2
f 144/184/4 1/49/4 19/52/4 148/174/4
f 12/107/5 121/106/5 145/181/5 9/122/5
f 3/70/5 128/139/5 164/176/5 98/70/5
f 120/102/5 5/101/5 1/49/5 144/184/5
f 17/68/6 134/169/6 168/177/6 96/68/6
f 163/140/4 170/79/4 169/172/4 164/176/4
f 132/78/4 147/168/4 148/174/4 131/171/4
f 134/169/4 149/170/4 150/178/4 133/63/4
f 130/82/4 117/84/4 118/86/4 129/85/4
f 128/139/4 115/110/4 116/57/4 127/56/4
f 158/87/2 125/90/2 126/92/2 157/91/2
f 162/148/2 123/99/2 124/10/2 161/48/2
f 146/96/4 150/95/4 149/170/4 145/181/4
f 144/184/4 148/174/4 147/44/4 143/43/4
f 122/98/5 146/105/5 145/181/5 121/106/5
f 120/102/5 144/184/5 143/21/5 119/11/5
f 125/90/2 122/98/2 121/106/2 126/92/2
f 123/99/2 120/102/2 119/11/2 124/10/2
f 117/84/6 111/109/6 112/180/6 118/86/6
f 115/110/6 113/112/6 114/153/6 116/57/6
f 111/141/2 155/144/2 156/179/2 112/185/2
f 155/144/2 158/87/2 157/91/2 156/179/2
f 113/182/2 159/145/2 160/7/2 114/6/2
f 159/145/2 162/148/2 161/48/2 160/7/2
f 127/56/5 163/140/5 164/176/5 128/139/5
f 129/85/5 165/175/5 166/173/5 130/82/5
f 133/63/6 167/65/6 168/177/6 134/169/6
f 131/171/6 169/172/6 170/79/6 132/78/6
f 176/76/7 173/74/7 166/173/15 167/65/15
f 167/65/4 166/173/4 165/175/4 168/177/4
f 192/66/5 214/66/5 213/19/5 191/19/5
f 194/20/6 212/20/6 211/64/6 193/64/6
f 216/64/3 217/66/3 196/66/3 197/64/3
f 208/8/2 209/47/2 210/88/2 207/143/2
f 180/5/2 208/8/2 207/143/2 179/142/2
f 202/116/5 205/116/5 206/113/5 201/113/5
f 200/120/6 203/120/6 204/119/6 199/119/6
f 203/120/4 206/113/4 205/116/4 204/119/4
f 201/113/4 187/115/4 188/117/4 202/116/4
f 199/119/4 181/104/4 182/22/4 200/120/4
f 184/58/6 180/154/6 179/108/6 183/83/6
f 190/9/2 185/12/2 186/97/2 189/89/2
f 214/66/3 217/66/3 216/64/3 211/64/3
f 185/12/5 182/22/5 181/104/5 186/97/5
f 209/47/2 190/9/2 189/89/2 210/88/2
f 191/19/4 184/58/4 183/83/4 192/66/4
f 193/64/4 188/117/4 187/115/4 194/20/4
f 218/19/1 213/19/1 212/20/1 215/20/1
f 10/157/2 112/185/2 156/179/2 57/158/2
f 171/80/16 164/176/17 169/172/17 178/152/16
f 136/81/18 171/80/16 178/152/16 139/151/18
f 163/140/19 172/71/20 177/149/20 170/79/19
f 172/71/20 135/18/21 140/17/21 177/149/20
f 175/150/13 168/177/22 165/175/22 174/72/13
f 151/59/1 152/67/1 222/67/1 221/59/1
f 219/60/1 151/59/1 221/59/1 220/60/1
f 152/67/1 153/68/1 154/68/1 222/67/1
f 107/59/4 104/60/4 220/60/4 221/59/4
f 96/68/6 109/68/6 154/68/6 153/68/6
f 101/59/2 102/67/2 152/67/2 151/59/2
f 104/60/5 97/60/5 219/60/5 220/60/5
f 102/67/2 96/68/2 153/68/2 152/67/2
